<?xml version="1.0" encoding="utf-8"?>
<!-- Generator: Adobe Illustrator 15.0.0, SVG Export Plug-In . SVG Version: 6.00 Build 0)  -->
<!DOCTYPE svg PUBLIC "-//W3C//DTD SVG 1.1//EN" "http://www.w3.org/Graphics/SVG/1.1/DTD/svg11.dtd">
<svg version="1.1" id="Layer_1" xmlns="http://www.w3.org/2000/svg" xmlns:xlink="http://www.w3.org/1999/xlink" x="0px" y="0px"
	 width="516.052px" height="417.042px" viewBox="0 0 516.052 417.042" enable-background="new 0 0 516.052 417.042"
	 xml:space="preserve">
<g>
	<g>
		
			<path fill="#CF200C" stroke="#FFFFFF" stroke-width="6" stroke-linecap="round" stroke-linejoin="round" stroke-miterlimit="10" d="
			M251.289,331.649c0,7.891-1.937,13.889-5.807,17.994c-3.871,4.105-9.537,6.158-17,6.158c-7.357,0-12.997-2.062-16.922-6.189
			c-3.923-4.127-5.885-10.137-5.885-18.027c0-7.805,1.951-13.766,5.854-17.883c3.901-4.116,9.575-6.175,17.015-6.175
			c7.465,0,13.12,2.042,16.971,6.127C249.365,317.739,251.289,323.737,251.289,331.649z M219.019,331.649
			c0,9.066,3.154,13.6,9.463,13.6c3.208,0,5.586-1.101,7.137-3.304c1.551-2.202,2.326-5.634,2.326-10.296
			c0-4.684-0.786-8.143-2.357-10.377c-1.572-2.234-3.92-3.352-7.043-3.352C222.195,317.921,219.019,322.497,219.019,331.649z"/>
		
			<path fill="#CF200C" stroke="#FFFFFF" stroke-width="6" stroke-linecap="round" stroke-linejoin="round" stroke-miterlimit="10" d="
			M293.789,323.181c0,5.24-1.543,9.286-4.633,12.141c-3.092,2.855-7.48,4.283-13.169,4.283h-3.56v15.557h-12.671v-46.896h16.23
			c5.923,0,10.372,1.295,13.345,3.882C292.303,314.734,293.789,318.413,293.789,323.181z M272.427,329.275h2.309
			c1.903,0,3.417-0.534,4.539-1.604c1.123-1.068,1.686-2.545,1.686-4.426c0-3.164-1.755-4.748-5.262-4.748h-3.271V329.275z"/>
		
			<path fill="#CF200C" stroke="#FFFFFF" stroke-width="6" stroke-linecap="round" stroke-linejoin="round" stroke-miterlimit="10" d="
			M329.105,355.161h-27.841v-46.896h27.841v10.168h-15.171v7.379h14.05v10.168h-14.05v8.853h15.171V355.161z"/>
		
			<path fill="#CF200C" stroke="#FFFFFF" stroke-width="6" stroke-linecap="round" stroke-linejoin="round" stroke-miterlimit="10" d="
			M381.968,355.161h-16.615l-17.129-33.039h-0.289c0.406,5.196,0.609,9.164,0.609,11.9v21.139h-11.227v-46.896h16.552l17.063,32.59
			h0.193c-0.301-4.725-0.449-8.521-0.449-11.387v-21.203h11.291V355.161z"/>
		
			<path fill="#CF200C" stroke="#FFFFFF" stroke-width="6" stroke-linecap="round" stroke-linejoin="round" stroke-miterlimit="10" d="
			M408.175,309.772c0-1.881,0.523-3.282,1.57-4.201c1.049-0.92,2.737-1.38,5.069-1.38c2.329,0,4.03,0.471,5.1,1.411
			c1.069,0.941,1.604,2.332,1.604,4.17c0,3.679-2.235,5.518-6.703,5.518C410.388,315.29,408.175,313.451,408.175,309.772z
			 M421.037,355.161h-12.541v-36.343h12.541V355.161z"/>
		
			<path fill="#CF200C" stroke="#FFFFFF" stroke-width="6" stroke-linecap="round" stroke-linejoin="round" stroke-miterlimit="10" d="
			M447.597,345.892c1.688,0,3.709-0.418,6.062-1.252v9.143c-1.689,0.727-3.3,1.246-4.827,1.555c-1.529,0.311-3.32,0.465-5.371,0.465
			c-4.215,0-7.25-1.03-9.111-3.095c-1.861-2.063-2.791-5.233-2.791-9.511v-14.98h-4.395v-5.1l5.582-3.945l3.238-7.634h8.213v7.281
			h8.918v9.397h-8.918v14.146C444.197,344.716,445.33,345.892,447.597,345.892z"/>
	</g>
	<g>
		<path fill="#8AB9C2" d="M301.814,387.118l-2.363-6.57h-9.046l-2.315,6.57h-4.078l8.854-23.758h4.208l8.853,23.758H301.814z
			 M298.432,377.213l-2.218-6.44c-0.162-0.432-0.385-1.111-0.672-2.04c-0.285-0.928-0.482-1.606-0.59-2.038
			c-0.293,1.326-0.719,2.777-1.279,4.354l-2.137,6.165H298.432z"/>
		<path fill="#8AB9C2" d="M326.019,374.284h8.706v11.879c-1.424,0.464-2.791,0.794-4.102,0.987
			c-1.312,0.194-2.728,0.291-4.249,0.291c-3.582,0-6.344-1.06-8.286-3.179c-1.942-2.121-2.913-5.111-2.913-8.977
			c0-3.807,1.096-6.788,3.285-8.939c2.19-2.153,5.207-3.23,9.048-3.23c2.47,0,4.812,0.477,7.022,1.425l-1.359,3.221
			c-1.92-0.885-3.841-1.327-5.762-1.327c-2.524,0-4.521,0.793-5.986,2.379c-1.469,1.586-2.201,3.754-2.201,6.506
			c0,2.893,0.66,5.09,1.982,6.596c1.32,1.506,3.223,2.258,5.703,2.258c1.252,0,2.591-0.156,4.015-0.471v-6.101h-4.903V374.284z"/>
		<path fill="#8AB9C2" d="M361.082,387.118h-13.385v-23.661h13.385v3.269h-9.516v6.442h8.918v3.237h-8.918v7.427h9.516V387.118z"/>
		<path fill="#8AB9C2" d="M393.201,387.118h-4.742l-11.636-18.854h-0.13l0.081,1.052c0.151,2.007,0.228,3.841,0.228,5.502v12.301
			h-3.514v-23.661h4.694l11.604,18.757h0.097c-0.021-0.248-0.064-1.151-0.129-2.711c-0.064-1.559-0.098-2.774-0.098-3.649v-12.396
			h3.545V387.118z"/>
		<path fill="#8AB9C2" d="M416.806,366.435c-2.223,0-3.971,0.787-5.244,2.363c-1.273,1.574-1.91,3.75-1.91,6.521
			c0,2.904,0.613,5.1,1.837,6.588c1.226,1.488,2.997,2.232,5.317,2.232c1.002,0,1.974-0.1,2.913-0.299
			c0.938-0.2,1.915-0.456,2.929-0.769v3.317c-1.855,0.702-3.959,1.052-6.312,1.052c-3.464,0-6.124-1.049-7.979-3.147
			c-1.855-2.1-2.783-5.1-2.783-9.008c0-2.459,0.451-4.611,1.352-6.455c0.9-1.846,2.203-3.259,3.908-4.241
			c1.705-0.981,3.707-1.474,6.004-1.474c2.417,0,4.65,0.508,6.701,1.522l-1.393,3.221c-0.799-0.378-1.643-0.709-2.533-0.995
			C418.724,366.577,417.787,366.435,416.806,366.435z"/>
		<path fill="#8AB9C2" d="M441.722,374.251l5.6-10.794h4.208l-7.882,14.483v9.178h-3.885v-9.048l-7.849-14.613h4.208
			L441.722,374.251z"/>
	</g>
</g>
<g>
	<polygon fill="#8AB9C2" points="49.964,216.653 115.297,148.653 145.796,214.659 62.046,264.159 	"/>
	<polygon fill="#8AB9C2" points="152.296,211.159 199.296,208.159 182.296,163.159 121.296,145.159 	"/>
	<polygon fill="#8AB9C2" points="64.296,272.159 148.296,223.159 165.296,314.159 70.296,303.159 	"/>
	<polygon fill="#8AB9C2" points="45.796,224.159 51.296,250.159 31.296,256.159 	"/>
	<polygon fill="#8AB9C2" points="52.546,256.909 35.296,262.159 63.296,302.159 	"/>
	<polygon fill="#8AB9C2" points="155.629,219.493 201.546,215.909 222.796,272.159 173.296,315.159 	"/>
	<polygon fill="#8AB9C2" points="208.546,213.409 270.629,189.159 286.629,255.493 230.046,268.159 	"/>
	<polygon fill="#8AB9C2" points="189.046,161.909 252.296,150.159 268.046,181.159 206.296,207.159 	"/>
	<polygon fill="#CF200C" points="257.296,148.159 294.046,101.409 303.046,108.909 273.296,176.909 	"/>
	<polygon fill="#CF200C" points="278.296,187.493 293.796,254.909 356.296,247.159 357.796,189.659 	"/>
	<polygon fill="#CF200C" points="278.296,180.826 289.296,156.409 319.546,136.159 343.296,147.409 318.796,182.409 	"/>
	<polygon fill="#CF200C" points="322.046,130.909 345.796,141.659 344.046,84.409 	"/>
	<polygon fill="#CF200C" points="297.046,96.659 305.546,102.659 329.183,12.93 	"/>
	<polygon fill="#CF200C" points="364.046,188.909 483.046,141.659 362.546,246.409 	"/>
	<polygon fill="#CF200C" points="384.296,235.909 368.546,249.909 409.546,260.409 422.046,246.909 	"/>
	<polygon fill="#CF200C" points="428.046,248.659 414.796,262.409 460.796,295.909 	"/>
</g>
</svg>
